<?xml version="1.0" encoding="UTF-8"?>
<svg width="1200" height="600" viewBox="0 0 1200 600" xmlns="http://www.w3.org/2000/svg">
  <!-- Background gradient -->
  <defs>
    <linearGradient id="bgGradient" x1="0%" y1="0%" x2="100%" y2="100%">
      <stop offset="0%" style="stop-color:#3498db;stop-opacity:0.8" />
      <stop offset="100%" style="stop-color:#9b59b6;stop-opacity:0.8" />
    </linearGradient>
    <pattern id="pattern1" width="20" height="20" patternUnits="userSpaceOnUse">
      <circle cx="10" cy="10" r="2" fill="#ffffff" fill-opacity="0.2"/>
    </pattern>
  </defs>
  
  <!-- Main background -->
  <rect width="1200" height="600" fill="url(#bgGradient)" />
  <rect width="1200" height="600" fill="url(#pattern1)" />
  
  <!-- Stylized Mayan temple -->
  <path d="M500,500 L700,500 L650,400 L550,400 Z" fill="#e67e22" />
  <path d="M525,400 L675,400 L625,300 L575,300 Z" fill="#d35400" />
  <path d="M550,300 L650,300 L600,200 L600,200 Z" fill="#e67e22" />
  
  <!-- Stylized sun -->
  <circle cx="900" cy="150" r="80" fill="#f1c40f" />
  <circle cx="900" cy="150" r="60" fill="#f39c12" />
  
  <!-- Decorative elements -->
  <path d="M200,450 C250,400 300,500 350,450 C400,400 450,500 500,450" stroke="#2ecc71" stroke-width="5" fill="none" />
  <path d="M700,450 C750,400 800,500 850,450 C900,400 950,500 1000,450" stroke="#2ecc71" stroke-width="5" fill="none" />
  
  <!-- Mayan-inspired glyphs -->
  <rect x="150" y="150" width="60" height="60" fill="#8e44ad" />
  <circle cx="180" cy="180" r="20" fill="#ecf0f1" />
  <rect x="250" y="150" width="60" height="60" fill="#8e44ad" />
  <path d="M280,170 L260,190 L280,210 L300,190 Z" fill="#ecf0f1" />
  <rect x="350" y="150" width="60" height="60" fill="#8e44ad" />
  <path d="M380,170 C390,180 390,200 380,210 C370,200 370,180 380,170" fill="#ecf0f1" />
</svg>
