<svg width="100" height="100" xmlns="http://www.w3.org/2000/svg">
  <defs>
    <pattern id="maya-pattern" patternUnits="userSpaceOnUse" width="100" height="100">
      <rect width="100" height="100" fill="#f8f8f8"/>
      <path d="M0,0 L20,0 L20,20 L0,20 Z" fill="#e67e22" opacity="0.2"/>
      <path d="M40,0 L60,0 L60,20 L40,20 Z" fill="#3498db" opacity="0.2"/>
      <path d="M80,0 L100,0 L100,20 L80,20 Z" fill="#2ecc71" opacity="0.2"/>
      <path d="M20,20 L40,20 L40,40 L20,40 Z" fill="#9b59b6" opacity="0.2"/>
      <path d="M60,20 L80,20 L80,40 L60,40 Z" fill="#f39c12" opacity="0.2"/>
      <path d="M0,40 L20,40 L20,60 L0,60 Z" fill="#3498db" opacity="0.2"/>
      <path d="M40,40 L60,40 L60,60 L40,60 Z" fill="#e67e22" opacity="0.2"/>
      <path d="M80,40 L100,40 L100,60 L80,60 Z" fill="#9b59b6" opacity="0.2"/>
      <path d="M20,60 L40,60 L40,80 L20,80 Z" fill="#f39c12" opacity="0.2"/>
      <path d="M60,60 L80,60 L80,80 L60,80 Z" fill="#2ecc71" opacity="0.2"/>
      <path d="M0,80 L20,80 L20,100 L0,100 Z" fill="#9b59b6" opacity="0.2"/>
      <path d="M40,80 L60,80 L60,100 L40,100 Z" fill="#3498db" opacity="0.2"/>
      <path d="M80,80 L100,80 L100,100 L80,100 Z" fill="#e67e22" opacity="0.2"/>
    </pattern>
  </defs>
  <rect width="100" height="100" fill="url(#maya-pattern)"/>
</svg>
